<?xml version="1.0" standalone="no"?>
<!DOCTYPE svg PUBLIC "-//W3C//DTD SVG 20010904//EN"
 "http://www.w3.org/TR/2001/REC-SVG-20010904/DTD/svg10.dtd">
<svg version="1.0" xmlns="http://www.w3.org/2000/svg"
 width="293.000000pt" height="288.000000pt" viewBox="0 0 293.000000 288.000000"
 preserveAspectRatio="xMidYMid meet">

<g transform="translate(0.000000,288.000000) scale(0.100000,-0.100000)"
fill="#000000" stroke="none">
<path d="M2637 2682 c-29 -32 -33 -80 -8 -113 12 -16 18 -29 14 -29 -13 0 -63
61 -63 76 0 8 -5 14 -11 14 -7 0 -19 9 -29 20 -14 16 -20 17 -34 7 -15 -11
-16 -17 -5 -40 14 -32 8 -41 -20 -32 -13 4 -21 15 -21 28 0 18 -2 19 -10 7 -5
-8 -7 -25 -4 -37 6 -23 -22 -46 -54 -42 -31 3 -41 -1 -59 -20 -10 -10 -31 -21
-46 -25 -23 -6 -27 -10 -21 -29 3 -12 3 -19 -1 -15 -4 4 -19 1 -34 -6 -14 -8
-42 -16 -61 -19 -50 -7 -70 -17 -70 -34 0 -10 -6 -13 -16 -9 -8 3 -13 2 -10
-3 6 -9 -43 -26 -51 -18 -2 3 -15 -6 -29 -20 -20 -20 -28 -22 -39 -13 -21 18
-19 26 13 38 15 6 36 14 47 18 11 4 24 6 28 5 5 -1 6 3 2 9 -3 5 -2 10 4 10
12 0 41 28 41 41 0 13 -59 -19 -147 -78 -61 -41 -193 -169 -193 -187 0 -3 16
-6 35 -6 32 0 35 2 35 30 0 17 5 30 10 30 6 0 10 7 10 15 0 16 43 31 59 20 6
-3 11 -1 11 4 0 6 -4 11 -10 11 -5 0 -10 7 -10 15 0 22 45 23 90 1 23 -11 32
-8 100 34 75 47 226 109 330 137 30 8 119 18 197 21 180 9 188 15 165 122 -6
30 -10 37 -11 20 -2 -25 -31 -75 -31 -53 0 7 5 15 10 18 6 3 10 11 10 16 0 6
-4 8 -9 5 -5 -3 -11 1 -15 9 -8 22 -35 18 -46 -7 -8 -22 -9 -22 -9 -2 -1 11
-6 25 -11 30 -14 14 5 30 40 37 19 3 17 5 -11 6 -23 1 -42 -5 -52 -17z"/>
<path d="M2321 2554 c0 -11 3 -14 6 -6 3 7 2 16 -1 19 -3 4 -6 -2 -5 -13z"/>
<path d="M2105 2471 c-3 -5 0 -13 6 -17 7 -4 9 -3 5 4 -3 5 0 13 6 15 9 4 10
6 1 6 -6 1 -14 -3 -18 -8z"/>
<path d="M1960 2290 c-8 -5 -11 -12 -8 -16 10 -9 38 3 38 16 0 12 -10 13 -30
0z"/>
<path d="M1892 2236 c2 -1 10 -7 19 -14 13 -10 19 -10 27 0 8 10 3 13 -19 14
-16 1 -28 1 -27 0z"/>
<path d="M1705 2155 c-16 -13 -61 -35 -100 -50 -179 -71 -283 -170 -310 -295
-4 -20 -24 -51 -45 -72 -44 -44 -88 -126 -123 -228 -85 -250 -116 -360 -139
-495 -12 -74 -24 -105 -104 -271 -38 -78 -73 -137 -87 -147 -35 -23 -116 -48
-173 -54 -48 -5 -53 -4 -70 22 -18 27 -58 50 -81 46 -7 -1 -13 3 -13 9 0 6
-26 10 -62 10 -161 0 -275 -128 -206 -230 69 -103 384 -107 546 -7 108 67 279
223 309 281 33 66 65 80 130 55 27 -10 27 -11 8 -24 -41 -29 -53 -48 -69 -111
-21 -83 -52 -132 -107 -169 -53 -36 -59 -43 -51 -64 9 -26 66 -91 79 -91 7 0
29 8 48 17 35 17 38 17 67 0 25 -14 56 -17 186 -17 105 0 165 4 181 13 16 8
34 37 56 91 31 78 55 107 101 120 15 5 38 -6 82 -38 l61 -45 3 -68 c3 -67 4
-68 32 -71 24 -3 28 -1 22 15 -4 10 -10 39 -13 66 -5 37 -3 47 9 47 16 0 38
-40 38 -68 0 -32 29 -62 60 -62 40 0 46 17 18 43 -14 13 -33 46 -43 74 -10 29
-22 50 -27 47 -4 -3 -8 2 -8 10 0 13 -88 68 -106 65 -11 -1 -44 44 -44 61 0 9
-3 20 -7 24 -11 11 -4 96 14 156 8 30 17 87 19 125 l3 70 82 -4 c59 -2 80 0
75 8 -10 16 22 25 39 11 7 -6 12 -17 9 -24 -6 -16 77 -80 150 -116 65 -33 88
-65 94 -135 2 -30 8 -55 12 -55 8 0 28 40 30 60 0 8 3 38 6 65 3 40 0 55 -16
74 -11 13 -23 21 -27 18 -3 -4 -19 3 -35 15 -23 16 -27 23 -16 30 10 8 9 9 -4
4 -15 -4 -61 20 -146 79 -12 9 -20 20 -17 26 3 5 -1 6 -9 3 -9 -3 -16 -2 -16
3 0 6 -11 15 -25 21 -16 7 -23 17 -19 27 4 10 0 15 -14 15 -12 0 -27 9 -35 21
-8 11 -34 34 -58 52 -24 17 -46 34 -49 38 -3 3 -19 14 -37 23 -39 20 -74 56
-67 68 3 5 0 15 -6 23 -10 12 -9 16 4 21 8 3 21 4 28 2 14 -5 61 94 80 170 9
36 8 46 -3 53 -12 7 -11 10 2 21 8 7 28 33 44 57 16 24 60 71 98 106 54 50 69
69 74 100 6 35 5 37 -16 30 -20 -6 -22 -5 -12 13 6 11 7 22 3 26 -3 4 -5 23
-3 42 2 24 -2 34 -12 34 -11 0 -13 8 -8 33 6 26 3 35 -16 50 -20 16 -26 17
-40 5 -9 -7 -24 -12 -35 -10 -10 2 -18 -1 -18 -7 0 -5 12 -11 28 -13 19 -2 27
-9 28 -23 3 -38 4 -40 15 -25 9 12 10 12 5 -3 -3 -10 -6 -23 -6 -28 0 -6 -13
-1 -30 11 -16 12 -30 28 -30 36 0 8 -7 14 -15 14 -8 0 -15 9 -15 20 0 20 -14
25 -54 21 -11 -1 -23 4 -26 10 -5 7 -9 5 -13 -5 -4 -9 -3 -15 1 -15 21 4 27
-5 29 -41 0 -22 -3 -40 -7 -40 -5 0 -17 -3 -27 -6 -15 -5 -15 -4 -3 5 23 16 3
25 -27 12 -19 -9 -23 -15 -15 -20 10 -6 10 -10 -1 -19 -11 -10 -14 -7 -15 17
0 24 6 32 34 46 39 18 40 22 18 46 -16 18 -14 20 32 39 26 12 44 24 38 28 -6
4 -16 17 -23 30 -6 12 -18 22 -26 22 -7 0 -15 4 -17 9 -1 5 -16 -1 -33 -14z
m-70 -75 c-3 -5 -13 -10 -21 -10 -8 0 -12 5 -9 10 3 6 13 10 21 10 8 0 12 -4
9 -10z m-71 -35 c-10 -8 -23 -14 -29 -14 -5 0 -1 6 9 14 11 8 24 15 30 15 5 0
1 -7 -10 -15z m370 -11 c11 -28 6 -38 -9 -18 -8 10 -15 22 -15 27 0 13 18 7
24 -9z m-71 -68 c4 -9 -3 -16 -19 -20 -36 -9 -51 4 -23 20 31 17 36 17 42 0z
m-243 -58 c0 -11 -5 -15 -15 -12 -8 4 -22 1 -30 -6 -8 -7 -15 -9 -15 -4 0 4
-5 3 -12 -4 -17 -17 -27 -15 -21 6 9 35 93 53 93 20z m302 -57 c-24 -33 -36
-30 -35 9 2 52 3 56 14 38 15 -26 29 -22 30 10 l2 27 4 -29 c3 -19 -2 -38 -15
-55z m-124 22 c4 -28 43 -38 59 -16 7 9 15 14 19 11 11 -12 -39 -58 -57 -53
-10 3 -21 1 -24 -6 -12 -18 -25 11 -25 54 0 41 22 49 28 10z m-328 -33 c0 -5
-4 -10 -10 -10 -5 0 -10 5 -10 10 0 6 5 10 10 10 6 0 10 -4 10 -10z m500 6 c0
-3 -4 -8 -10 -11 -5 -3 -10 -1 -10 4 0 6 5 11 10 11 6 0 10 -2 10 -4z m-549
-43 c-12 -20 -14 -14 -5 12 4 9 9 14 11 11 3 -2 0 -13 -6 -23z m307 -30 c-2
-21 2 -28 17 -31 11 -2 25 -8 30 -14 12 -11 -46 1 -59 13 -8 7 0 59 10 59 2 0
3 -12 2 -27z m141 -49 c-7 -13 -16 -24 -20 -24 -8 0 4 51 17 72 15 23 17 -22
3 -48z m-36 9 c-6 -45 -29 -84 -46 -82 -35 4 -35 4 -57 -103 -4 -21 -3 -35 1
-32 5 3 13 -5 18 -18 6 -13 10 -17 10 -10 1 6 6 12 11 12 7 0 7 -6 0 -19 -5
-11 -10 -34 -10 -51 0 -32 -27 -90 -42 -90 -4 0 -8 10 -9 23 0 19 -2 19 -11
-6 l-10 -29 -19 29 c-23 35 -25 57 -3 49 11 -4 18 1 21 15 6 21 7 21 21 3 13
-17 14 -13 7 36 -4 30 -8 69 -9 85 -1 34 -27 95 -40 95 -4 0 -6 -11 -4 -25 3
-14 1 -25 -4 -25 -5 0 -8 15 -6 33 1 18 -2 38 -6 45 -4 7 -1 15 8 18 26 10 19
34 -9 34 -28 0 -34 15 -9 24 25 9 82 -20 102 -53 l19 -31 22 28 c12 15 30 39
39 55 9 15 17 27 19 27 1 0 -1 -17 -4 -37z m-299 -58 c-4 -8 -10 -15 -15 -15
-5 0 -9 7 -9 15 0 8 7 15 15 15 9 0 12 -6 9 -15z m-244 -18 c0 -2 -10 -12 -21
-23 -22 -19 -22 -19 -10 4 10 18 31 31 31 19z m382 -129 c-11 -23 -11 -23 -11
-1 -1 12 -4 30 -7 40 -6 17 -6 17 11 1 15 -14 16 -21 7 -40z m-501 5 c-8 -15
-10 -15 -11 -2 0 17 10 32 18 25 2 -3 -1 -13 -7 -23z m131 0 c5 -37 -10 -71
-34 -79 -29 -9 -34 3 -15 35 9 16 17 39 17 50 0 31 28 26 32 -6z m205 -95 c-3
-8 -6 -5 -6 6 -1 11 2 17 5 13 3 -3 4 -12 1 -19z m-164 -15 c15 -9 6 -23 -18
-29 -14 -3 -25 -12 -25 -18 0 -7 -6 -20 -14 -31 -13 -18 -14 -18 -39 1 -31 22
-34 46 -9 73 13 16 25 19 57 14 22 -3 43 -7 48 -10z m-133 -51 c0 -11 -9 -29
-20 -42 -24 -27 -26 -11 -5 30 18 35 25 38 25 12z m-7 -130 c14 -16 14 -19 -3
-42 l-20 -25 0 28 c0 16 -4 26 -10 22 -11 -7 -14 18 -3 28 10 11 19 8 36 -11z
m213 -47 c-3 -9 -12 -12 -21 -9 -9 4 -24 -1 -34 -10 -17 -15 -19 -15 -31 -1
-12 15 -14 15 -22 1 -16 -29 -29 -17 -14 13 21 39 65 68 77 50 8 -11 12 -10
21 6 11 19 12 18 21 -8 5 -15 6 -34 3 -42z m364 -29 c0 -2 -7 -7 -16 -10 -8
-3 -12 -2 -9 4 6 10 25 14 25 6z m-521 -127 c35 -35 39 -49 13 -49 -33 0 -32
-12 3 -46 19 -18 35 -40 35 -49 0 -23 -34 -14 -38 10 -2 11 -12 29 -21 40 -24
28 -58 100 -53 113 6 20 29 13 61 -19z m477 -14 c-11 -8 -22 -12 -25 -9 -6 6
19 24 34 24 6 -1 1 -7 -9 -15z m201 -27 c-3 -8 -6 -5 -6 6 -1 11 2 17 5 13 3
-3 4 -12 1 -19z m-159 -7 c3 -8 -1 -12 -9 -9 -7 2 -15 10 -17 17 -3 8 1 12 9
9 7 -2 15 -10 17 -17z m-33 -11 c3 -5 1 -10 -4 -10 -6 0 -11 5 -11 10 0 6 2
10 4 10 3 0 8 -4 11 -10z m-455 -10 c0 -5 -2 -10 -4 -10 -3 0 -8 5 -11 10 -3
6 -1 10 4 10 6 0 11 -4 11 -10z m249 -75 c76 -38 81 -46 81 -129 0 -53 -5 -82
-21 -111 -21 -41 -51 -140 -63 -208 -14 -75 -22 -84 -84 -89 -31 -3 -58 -10
-60 -16 -2 -7 -9 -8 -20 -2 -9 5 -34 12 -55 15 -24 4 -53 20 -77 42 -39 34
-39 36 -25 64 9 16 39 46 69 68 114 84 139 146 96 231 -25 48 -18 53 11 8 12
-18 18 -24 14 -13 -20 55 -18 64 31 114 27 27 50 49 52 50 1 1 25 -10 51 -24z
m596 -43 c-3 -3 -11 0 -18 7 -9 10 -8 11 6 5 10 -3 15 -9 12 -12z m-1658 -278
c-3 -3 -12 -4 -19 -1 -8 3 -5 6 6 6 11 1 17 -2 13 -5z m372 -8 c9 -10 8 -15
-2 -19 -13 -5 -47 14 -47 27 0 12 38 6 49 -8z m331 4 c0 -5 -5 -10 -11 -10 -5
0 -7 5 -4 10 3 6 8 10 11 10 2 0 4 -4 4 -10z m40 -7 c-1 -31 -70 -58 -70 -28
0 8 9 15 19 15 11 0 23 5 26 10 7 12 25 13 25 3z m-700 -13 c0 -5 -7 -10 -15
-10 -8 0 -15 5 -15 10 0 6 7 10 15 10 8 0 15 -4 15 -10z m-174 -20 c8 0 14 -4
14 -10 0 -13 -11 -12 -32 4 -10 7 -14 16 -11 20 4 4 9 2 11 -3 2 -6 10 -11 18
-11z m424 -47 c0 -2 -4 -3 -8 -3 -14 0 -52 36 -46 43 5 5 54 -31 54 -40z m-40
-37 c0 -2 -7 -7 -16 -10 -8 -3 -12 -2 -9 4 6 10 25 14 25 6z"/>
<path d="M1250 1400 c0 -5 5 -10 11 -10 5 0 7 5 4 10 -3 6 -8 10 -11 10 -2 0
-4 -4 -4 -10z"/>
<path d="M1213 1039 c9 -5 17 -17 17 -24 0 -8 5 -15 10 -15 6 0 10 4 10 8 0
12 -34 42 -46 42 -5 0 -1 -5 9 -11z"/>
<path d="M1886 2132 c-15 -25 -25 -62 -16 -62 6 0 10 7 10 16 0 11 6 14 20 9
23 -7 25 2 6 28 -8 10 -17 14 -20 9z"/>
</g>
</svg>
